<svg xmlns="http://www.w3.org/2000/svg" viewBox="0 0 440 250" width="440" height="250">
  <defs>
    <linearGradient id="body" x1="0" y1="0" x2="0" y2="1">
      <stop offset="0" stop-color="#3b4049"/><stop offset="1" stop-color="#23262c"/>
    </linearGradient>
    <linearGradient id="top" x1="0" y1="0" x2="0" y2="1">
      <stop offset="0" stop-color="#4d535d"/><stop offset="1" stop-color="#383d45"/>
    </linearGradient>
  </defs>
  <rect width="440" height="250" fill="#ffffff"/>
  <ellipse cx="220" cy="206" rx="110" ry="11" fill="#0f172a" opacity="0.07"/>
  <rect x="116" y="88" width="208" height="104" rx="10" fill="url(#body)"/>
  <path d="M116 100 Q116 88 128 88 L312 88 Q324 88 324 100 L324 108 L116 108 Z" fill="url(#top)"/>
  <rect x="128" y="116" width="184" height="68" rx="6" fill="#1b1e23"/>
  <rect x="128" y="116" width="184" height="5" rx="2.5" fill="#ee2e3a"/>
  <g>
    <circle cx="146" cy="133" r="3" fill="#3ddc6d"/>
    <circle cx="157" cy="133" r="3" fill="#3ddc6d"/>
    <circle cx="168" cy="133" r="3" fill="#f5c518"/>
  </g>
  <text x="304" y="136" text-anchor="end" font-family="Arial, sans-serif" font-size="10" font-weight="700" letter-spacing="2" fill="#9aa3ad">FORTINET</text>
  <g fill="#0c0e11" stroke="#3a3f46" stroke-width="1">
    <rect x="146" y="154" width="20" height="18" rx="2"/>
    <rect x="172" y="154" width="20" height="18" rx="2"/>
    <rect x="198" y="154" width="20" height="18" rx="2"/>
    <rect x="224" y="154" width="20" height="18" rx="2"/>
    <rect x="250" y="154" width="20" height="18" rx="2"/>
  </g>
  <text x="220" y="228" text-anchor="middle" font-family="Arial, sans-serif" font-size="20" font-weight="800" fill="#0f172a">FortiGate 30G</text>
</svg>
